<?xml version="1.0" encoding="utf-8"?>
<!-- Generator: Adobe Illustrator 25.0.1, SVG Export Plug-In . SVG Version: 6.00 Build 0)  -->
<svg version="1.1" id="Capa_1" xmlns="http://www.w3.org/2000/svg" xmlns:xlink="http://www.w3.org/1999/xlink" x="0px" y="0px"
	 viewBox="0 0 184.7 53.9" style="enable-background:new 0 0 184.7 53.9;" xml:space="preserve">
<style type="text/css">
	.st0{fill:#0B318F;}
	.st1{fill:#FF6E6E;}
	.st2{fill:#2BC77F;}
	.st3{fill:#4099F2;}
	.st4{fill:#A564D8;}
	.st5{fill:#FAA716;}
</style>
<g>
	<g>
		<polygon class="st0" points="152.6,35.7 156.5,35.7 156.5,47.5 182.5,47.5 182.5,40.5 163.8,40.5 163.8,35.7 184.7,35.7 
			184.7,28.7 152.6,28.7 		"/>
		<polygon class="st0" points="182.2,18.7 163.5,18.7 163.5,16.2 179.7,16.2 179.7,11.6 163.5,11.6 163.5,8.9 182.2,8.9 182.2,1.9 
			156.2,1.9 156.2,25.7 182.2,25.7 		"/>
		<polygon class="st0" points="118.7,35.7 122.7,35.7 122.7,47.5 148.7,47.5 148.7,40.5 129.9,40.5 129.9,35.7 150.9,35.7 
			150.9,28.7 118.7,28.7 		"/>
		<polygon class="st0" points="148.4,18.7 129.6,18.7 129.6,16.2 145.9,16.2 145.9,11.6 129.6,11.6 129.6,8.9 148.4,8.9 148.4,1.9 
			122.4,1.9 122.4,25.7 148.4,25.7 		"/>
	</g>
	<path class="st1" d="M62.7,37.2c0,2,0,5.1-3.8,5.1c-2.3,0-3.2-1.3-3.8-3.3c-2,2.4-4.5,3.7-7.5,3.7c-7.4,0-13-6.3-13-15.1
		c0-8.6,5.8-15.2,13-15.2c2.9,0,5.7,1.2,7.5,3.6c0.2-1.9,1.9-3.3,3.8-3.3c3.8,0,3.8,3.1,3.8,5.1V37.2z M48.8,35.4
		c4.1,0,6.1-4.1,6.1-7.9s-1.9-8-6.1-8c-4.3,0-6.2,4.2-6.2,8S44.6,35.4,48.8,35.4z"/>
	<path class="st2" d="M75.2,5.2c0,2.4-2,4.5-4.4,4.5c-2.3,0-4.4-2.1-4.4-4.5c0-2.2,2.1-4.3,4.4-4.3C73.2,0.9,75.2,2.9,75.2,5.2z
		 M66.9,17c0-2.6,1.6-4.4,3.9-4.4s3.9,1.7,3.9,4.4v20.9c0,2.6-1.6,4.4-3.9,4.4c-2.3,0-3.9-1.7-3.9-4.4V17L66.9,17z"/>
	<path class="st3" d="M78.7,4.4c0-2.6,1.6-4.4,3.9-4.4c2.3,0,3.9,1.7,3.9,4.4v33.6c0,2.6-1.6,4.4-3.9,4.4c-2.3,0-3.9-1.7-3.9-4.4
		V4.4z"/>
	<path class="st4" d="M88.8,18c-0.2-0.6-0.4-1.2-0.4-2c0-2,2.1-3.4,3.7-3.4c1.9,0,3.3,1,3.9,2.8l5.4,14.8l5.8-14.8
		c0.6-1.7,2-2.8,3.9-2.8c1.6,0,3.7,1.4,3.7,3.4c0,0.8-0.1,1.4-0.4,2l-13.1,32.7c-0.6,1.6-1.9,3.1-3.7,3.1c-2.7,0-4.1-1.7-4.1-3.4
		c0-0.8,0.2-1.6,0.5-2.3l3.4-8.5L88.8,18z"/>
	<path class="st5" d="M13.2,3.2h-9C1.7,3.2,0,4.8,0,7.4v30.5C0,41,2.5,42,4.3,42h9.5c11.2,0,18.6-7.4,18.6-18.9
		C32.4,11,25.4,3.2,13.2,3.2z M21.7,23.4l-10.5,5.9c-0.8,0.5-1.5,0.1-1.5-0.9V16.6c0-0.9,0.7-1.3,1.5-0.9l10.5,5.9
		C22.5,22.2,22.5,22.9,21.7,23.4z"/>
</g>
</svg>
