<?xml version="1.0" encoding="utf-8"?>
<!-- Generator: Adobe Illustrator 25.0.1, SVG Export Plug-In . SVG Version: 6.00 Build 0)  -->
<svg version="1.1" id="레이어_1" xmlns="http://www.w3.org/2000/svg" xmlns:xlink="http://www.w3.org/1999/xlink" x="0px"
	 y="0px" viewBox="0 0 57.7 16.8" style="enable-background:new 0 0 57.7 16.8;" xml:space="preserve">
<style type="text/css">
	.st0{fill:#0B318F;}
	.st1{fill:#FF6E6E;}
	.st2{fill:#2BC77F;}
	.st3{fill:#4099F2;}
	.st4{fill:#A564D8;}
	.st5{fill:#FAA716;}
</style>
<g>
	<g>
		<polygon class="st0" points="47.7,11.2 48.9,11.2 48.9,14.8 57,14.8 57,12.6 51.2,12.6 51.2,11.2 57.7,11.2 57.7,9 47.7,9 		"/>
		<polygon class="st0" points="56.9,5.8 51.1,5.8 51.1,5.1 56.1,5.1 56.1,3.6 51.1,3.6 51.1,2.8 56.9,2.8 56.9,0.6 48.8,0.6 48.8,8 
			56.9,8 		"/>
		<polygon class="st0" points="37.1,11.2 38.3,11.2 38.3,14.8 46.5,14.8 46.5,12.6 40.6,12.6 40.6,11.2 47.1,11.2 47.1,9 37.1,9 		
			"/>
		<polygon class="st0" points="46.4,5.8 40.5,5.8 40.5,5.1 45.6,5.1 45.6,3.6 40.5,3.6 40.5,2.8 46.4,2.8 46.4,0.6 38.2,0.6 38.2,8 
			46.4,8 		"/>
	</g>
	<path class="st1" d="M19.6,11.6c0,0.6,0,1.6-1.2,1.6c-0.7,0-1-0.4-1.2-1c-0.6,0.7-1.4,1.1-2.3,1.1c-2.3,0-4.1-2-4.1-4.7
		c0-2.7,1.8-4.7,4.1-4.7c0.9,0,1.8,0.4,2.3,1.1c0.1-0.6,0.6-1,1.2-1c1.2,0,1.2,1,1.2,1.6V11.6z M15.3,11.1c1.3,0,1.9-1.3,1.9-2.5
		s-0.6-2.5-1.9-2.5c-1.3,0-1.9,1.3-1.9,2.5S13.9,11.1,15.3,11.1z"/>
	<path class="st2" d="M23.5,1.6c0,0.8-0.6,1.4-1.4,1.4c-0.7,0-1.4-0.7-1.4-1.4c0-0.7,0.6-1.3,1.4-1.3C22.9,0.3,23.5,0.9,23.5,1.6z
		 M20.9,5.3c0-0.8,0.5-1.4,1.2-1.4s1.2,0.5,1.2,1.4v6.5c0,0.8-0.5,1.4-1.2,1.4c-0.7,0-1.2-0.5-1.2-1.4L20.9,5.3L20.9,5.3z"/>
	<path class="st3" d="M24.6,1.4c0-0.8,0.5-1.4,1.2-1.4c0.7,0,1.2,0.5,1.2,1.4v10.5c0,0.8-0.5,1.4-1.2,1.4s-1.2-0.5-1.2-1.4V1.4z"/>
	<path class="st4" d="M27.7,5.6c-0.1-0.2-0.1-0.4-0.1-0.6c0-0.6,0.6-1.1,1.2-1.1c0.6,0,1,0.3,1.2,0.9l1.7,4.6l1.8-4.6
		c0.2-0.5,0.6-0.9,1.2-0.9c0.5,0,1.2,0.4,1.2,1.1c0,0.3,0,0.4-0.1,0.6l-4.1,10.2c-0.2,0.5-0.6,1-1.2,1c-0.8,0-1.3-0.5-1.3-1.1
		c0-0.2,0.1-0.5,0.2-0.7l1.1-2.7L27.7,5.6z"/>
	<path class="st5" d="M4.1,1H1.3C0.5,1,0,1.5,0,2.3v9.5c0,1,0.8,1.3,1.3,1.3h3c3.5,0,5.8-2.3,5.8-5.9C10.1,3.4,7.9,1,4.1,1z
		 M6.8,7.3L3.5,9.2c-0.3,0.1-0.5,0-0.5-0.3V5.2c0-0.3,0.2-0.4,0.5-0.3l3.3,1.8C7,6.9,7,7.2,6.8,7.3z"/>
</g>
</svg>
